<svg width="50" height="50" viewBox="0 0 50 50" fill="none" xmlns="http://www.w3.org/2000/svg">
<path d="M10.4167 20.6726C10.4167 30.7806 19.2594 39.1394 23.1734 42.3442C23.7335 42.8028 24.017 43.0349 24.4349 43.1526C24.7603 43.2442 25.2392 43.2442 25.5647 43.1526C25.9833 43.0347 26.2648 42.8049 26.8271 42.3445C30.7411 39.1397 39.5832 30.7815 39.5832 20.6735C39.5832 16.8483 38.0469 13.1793 35.312 10.4744C32.5771 7.76957 28.868 6.25 25.0002 6.25C21.1325 6.25 17.423 7.7698 14.6881 10.4746C11.9532 13.1795 10.4167 16.8474 10.4167 20.6726Z" stroke="white" stroke-width="2" stroke-linecap="round" stroke-linejoin="round"/>
<path d="M20.8334 18.75C20.8334 21.0512 22.6989 22.9167 25.0001 22.9167C27.3013 22.9167 29.1667 21.0512 29.1667 18.75C29.1667 16.4488 27.3013 14.5833 25.0001 14.5833C22.6989 14.5833 20.8334 16.4488 20.8334 18.75Z" stroke="white" stroke-width="2" stroke-linecap="round" stroke-linejoin="round"/>
</svg>
